<?xml version="1.0" encoding="iso-8859-1"?>
<!-- Generator: Adobe Illustrator 19.0.0, SVG Export Plug-In . SVG Version: 6.00 Build 0)  -->
<svg version="1.1" id="Layer_1" xmlns="http://www.w3.org/2000/svg" xmlns:xlink="http://www.w3.org/1999/xlink" x="0px" y="0px"
	 viewBox="0 0 225.887 225.887" style="enable-background:new 0 0 225.887 225.887;" xml:space="preserve">
<g>
	<path style="fill:#1D1D1B;" d="M224.082,117.854c1.165,0.08,2.21,0.965,1.648,2.291c-6.349,16.396-11.614,47.258-29.697,55.054
		c-25.438,10.971-57.224,12.819-84.511,12.377c-24.794-0.362-59.997-0.643-82.823-11.332C9.651,167.323,5.793,136.983,0.328,119.06
		c-0.04-0.12,0-0.241,0-0.402c-0.322-0.321-0.442-0.844-0.201-1.206c4.3-5.586,20.012-4.903,26.643-5.988
		c15.753-2.692,31.465-5.586,47.138-8.6c0.723-0.121,1.286,0.12,1.688,0.563c3.054-4.903,6.148-9.685,9.042-14.386
		c10.207-16.597,21.017-32.872,32.711-48.504c0.442-0.643,1.125-0.844,1.768-0.764c-0.281-0.884,0.643-1.969,1.567-1.326
		c22.625,16.476,39.101,40.145,53.045,64.86c0.241-0.241,0.563-0.402,0.924-0.281c8.64,2.491,17.24,5.224,25.839,7.917
		c5.787,1.768,14.105,2.652,19.289,6.148c0.362-0.281,0.764-0.563,1.165-0.884C222.394,114.961,224.363,116.408,224.082,117.854z
		 M215.844,120.145c-5.425-0.683-12.699-4.179-16.396-5.345c-8.319-2.692-16.516-5.787-24.513-9.323
		c5.385,9.685,10.448,19.49,15.271,29.054C199.167,130.995,207.767,126.213,215.844,120.145z M205.597,158.844
		c6.631-11.815,10.93-25.518,15.833-38.217c-18.244,15.552-40.065,23.428-63.051,26.322c13.663,5.787,26.643,13.623,38.94,21.74
		C200.493,166.399,203.065,163.344,205.597,158.844z M184.7,174.195c3.456-1.005,6.269-2.009,8.76-3.255
		c-13.101-8.318-26.724-15.592-40.105-23.428c-10.448,1.005-21.098,1.045-31.747,0.322c-4.3-0.322-8.68-0.643-13.141-1.005
		c-0.161,0.121-0.321,0.241-0.563,0.322c-23.91,9.403-48.544,17.601-73.178,25.076c3.818,2.049,8.158,3.657,13.261,4.581
		c22.142,3.978,44.606,6.39,67.11,6.43C138.567,183.277,162.116,180.705,184.7,174.195z M186.549,135.857
		c-18.285-33.475-37.252-63.935-63.493-91.583c8.278,32.269,9.645,65.704,3.295,98.575c-0.08,0.522-0.442,0.804-0.844,0.924
		C146.524,144.658,167.34,142.769,186.549,135.857z M122.493,143.694c0.563,0,1.125,0.04,1.688,0.04
		c-0.482-0.201-0.804-0.643-0.763-1.286c4.3-33.836,3.858-66.387-2.049-100.022c-1.165,33.515-1.286,66.588,1.567,100.062
		C122.975,143.011,122.774,143.412,122.493,143.694z M113.973,143.091c2.049,0.161,4.099,0.281,6.148,0.442
		c-0.241-0.281-0.442-0.603-0.482-1.045c-3.215-32.55-3.978-65.543-0.643-98.093C108.307,59.706,97.738,75.057,87.932,90.97
		c-8.921,14.507-16.034,31.104-26.884,44.204c-0.08,0.08-0.161,0.121-0.281,0.121c-0.241,0-0.522-0.281-0.442-0.563
		c2.813-9.725,7.836-19.048,13.261-28.009c-12.458,2.492-24.955,4.822-37.453,6.992c-5.586,0.924-11.131,1.849-16.717,2.692
		c-2.25,0.321-12.659,0.08-16.677,0.763c18.365,8.479,37.975,14.346,57.948,18.445C78.329,139.273,96.251,141.564,113.973,143.091z
		 M100.712,146.105c-33.595-3.295-69.481-9.846-97.732-26.523c7.796,19.369,12.658,40.427,29.135,51.076
		C54.659,161.777,77.605,153.378,100.712,146.105z"/>
	<path style="fill:#33B2E9;" d="M199.448,114.8c3.697,1.165,10.971,4.662,16.396,5.345c-8.077,6.068-16.677,10.85-25.638,14.387
		c-4.822-9.564-9.886-19.37-15.271-29.054C182.932,109.013,191.13,112.108,199.448,114.8z M199.488,121.431
		c0.683,0.402,1.366-0.723,0.643-1.125c-2.411-1.246-4.862-2.411-7.274-3.617c-0.402-0.161-0.764,0.402-0.362,0.603
		C194.827,118.698,197.117,120.105,199.488,121.431z"/>
	<path style="fill:#66C5EE;" d="M221.43,120.627c-4.903,12.699-9.202,26.402-15.833,38.217c-2.532,4.501-5.104,7.555-8.278,9.845
		c-12.297-8.117-25.277-15.954-38.94-21.74C181.365,144.055,203.185,136.179,221.43,120.627z M202.543,158.442
		c2.773-2.17,4.34-5.264,4.26-8.841c0-0.683-0.964-0.643-1.045,0c-0.241,3.175-1.527,6.068-3.818,8.278
		C201.538,158.241,202.141,158.763,202.543,158.442z M203.949,148.556c0.362-0.643-0.563-1.447-1.045-0.804
		c-1.447,1.848-2.532,3.818-3.456,5.947c-0.322,0.764,0.723,1.447,1.165,0.683C201.699,152.414,202.864,150.525,203.949,148.556z"/>
	<path style="fill:#1D1D1B;" d="M206.802,149.601c0.08,3.577-1.487,6.671-4.26,8.841c-0.402,0.322-1.005-0.201-0.603-0.563
		c2.291-2.21,3.576-5.104,3.818-8.278C205.838,148.958,206.802,148.918,206.802,149.601z"/>
	<path style="fill:#1D1D1B;" d="M202.904,147.752c0.482-0.643,1.407,0.161,1.045,0.804c-1.085,1.969-2.25,3.858-3.335,5.827
		c-0.442,0.764-1.487,0.08-1.165-0.683C200.372,151.57,201.458,149.601,202.904,147.752z"/>
	<path style="fill:#1D1D1B;" d="M200.131,120.306c0.723,0.402,0.04,1.527-0.643,1.125c-2.371-1.326-4.662-2.733-6.992-4.139
		c-0.402-0.201-0.04-0.764,0.362-0.603C195.269,117.894,197.72,119.06,200.131,120.306z"/>
	<path style="fill:#66C5EE;" d="M193.461,170.94c-2.492,1.246-5.305,2.25-8.76,3.255c-22.584,6.51-46.133,9.082-69.602,9.042
		c-22.504-0.04-44.968-2.451-67.11-6.43c-5.104-0.924-9.444-2.532-13.261-4.581c24.634-7.475,49.268-15.673,73.178-25.076
		c0.241-0.08,0.402-0.201,0.563-0.322c4.461,0.362,8.841,0.683,13.141,1.005c10.649,0.723,21.298,0.683,31.747-0.322
		C166.737,155.348,180.36,162.621,193.461,170.94z M170.273,162.742c0.643,0.322,1.125-0.563,0.563-0.964
		c-2.733-1.889-5.626-3.456-8.519-5.063c-0.643-0.402-1.246,0.603-0.603,1.005C164.527,159.487,167.3,161.255,170.273,162.742z
		 M167.702,165.314c0.764,0.482,1.406-0.683,0.723-1.165c-2.009-1.406-4.018-2.692-6.068-3.978
		c-0.643-0.362-1.085,0.522-0.563,0.964C163.723,162.581,165.692,163.987,167.702,165.314z M76.36,165.394
		c0.844-0.322,0.522-1.607-0.402-1.366c-1.728,0.442-3.094,1.366-4.26,2.733c-0.482,0.603,0.281,1.366,0.844,0.844
		C73.667,166.6,74.913,165.916,76.36,165.394z"/>
	<path style="fill:#1D1D1B;" d="M170.836,161.777c0.563,0.402,0.08,1.286-0.563,0.964c-2.974-1.487-5.747-3.255-8.56-5.023
		c-0.643-0.402-0.04-1.407,0.603-1.005C165.21,158.321,168.103,159.889,170.836,161.777z"/>
	<path style="fill:#1D1D1B;" d="M168.425,164.148c0.683,0.482,0.04,1.648-0.723,1.165c-2.009-1.326-3.978-2.733-5.907-4.179
		c-0.522-0.442-0.08-1.326,0.563-0.964C164.406,161.456,166.416,162.742,168.425,164.148z"/>
	<path style="fill:#66C5EE;" d="M123.055,44.274c26.241,27.648,45.209,58.108,63.493,91.583
		c-19.209,6.912-40.025,8.801-61.042,7.917c0.402-0.121,0.764-0.402,0.844-0.924C132.7,109.978,131.334,76.543,123.055,44.274z
		 M158.499,93.663c0.322,0.683,1.366,0.201,1.206-0.482c-1.125-3.938-3.456-7.796-6.51-10.569c-0.362-0.362-1.005,0.08-0.723,0.563
		C154.802,86.55,156.771,89.925,158.499,93.663z M158.459,97.721c0.322,0.683,1.487,0.201,1.206-0.522
		c-1.407-3.376-3.577-6.229-6.309-8.72c-0.442-0.402-1.085,0.241-0.683,0.683C155.083,91.693,156.892,94.627,158.459,97.721z
		 M137.08,129.709c0.603-2.371,0.563-4.541-0.04-6.872c-0.201-0.884-1.487-0.522-1.326,0.362c0.402,2.009,0.402,4.099,0.121,6.148
		C135.714,130.151,136.839,130.513,137.08,129.709z"/>
	<path style="fill:#1D1D1B;" d="M159.705,93.18c0.161,0.683-0.884,1.165-1.206,0.482c-1.728-3.737-3.697-7.113-6.028-10.488
		c-0.281-0.482,0.362-0.924,0.723-0.563C156.249,85.384,158.579,89.242,159.705,93.18z"/>
	<path style="fill:#1D1D1B;" d="M159.664,97.199c0.281,0.723-0.884,1.206-1.206,0.522c-1.567-3.094-3.376-6.028-5.787-8.56
		c-0.402-0.442,0.241-1.085,0.683-0.683C156.088,90.97,158.258,93.823,159.664,97.199z"/>
	<path style="fill:#1D1D1B;" d="M137.04,122.837c0.603,2.331,0.643,4.501,0.04,6.872c-0.241,0.804-1.366,0.442-1.246-0.362
		c0.281-2.049,0.281-4.139-0.121-6.148C135.553,122.315,136.839,121.953,137.04,122.837z"/>
	<path style="fill:#33B2E9;" d="M124.18,143.734c-0.563,0-1.125-0.04-1.688-0.04c0.281-0.281,0.482-0.683,0.442-1.205
		c-2.853-33.475-2.733-66.548-1.567-100.062c5.907,33.635,6.349,66.186,2.049,100.022
		C123.377,143.091,123.698,143.533,124.18,143.734z"/>
	<path style="fill:#66C5EE;" d="M120.122,143.533c-2.049-0.161-4.099-0.281-6.148-0.442c-17.722-1.527-35.645-3.818-53.286-7.475
		l0.08-0.321c0.121,0,0.201-0.04,0.281-0.121c10.85-13.101,17.963-29.697,26.884-44.204c9.805-15.913,20.374-31.264,31.064-46.575
		c-3.336,32.55-2.572,65.543,0.643,98.093C119.68,142.93,119.881,143.252,120.122,143.533z M112.969,73.449
		c0.161-0.764-0.884-1.085-1.165-0.321c-0.884,2.492-1.125,5.063-0.804,7.675c0.121,0.964,1.607,1.005,1.527,0
		C112.326,78.312,112.527,75.9,112.969,73.449z M85.763,114.278c0.321-0.683-0.643-1.286-1.045-0.603
		c-1.447,2.652-2.893,5.345-3.898,8.238c-0.161,0.522,0.603,0.804,0.884,0.362C83.352,119.783,84.557,117.01,85.763,114.278z
		 M80.499,117.774c0.402-0.362-0.121-1.125-0.603-0.804c-1.969,1.487-3.094,3.536-3.697,5.907c-0.12,0.522,0.603,0.723,0.804,0.201
		C77.686,120.989,78.972,119.341,80.499,117.774z"/>
	<path style="fill:#1D1D1B;" d="M111.803,73.128c0.281-0.764,1.326-0.442,1.165,0.321c-0.442,2.451-0.643,4.862-0.442,7.354
		c0.08,1.005-1.406,0.964-1.527,0C110.678,78.191,110.919,75.619,111.803,73.128z"/>
	<path style="fill:#1D1D1B;" d="M84.718,113.675c0.402-0.683,1.366-0.08,1.045,0.603c-1.206,2.733-2.411,5.506-4.059,7.997
		c-0.281,0.442-1.045,0.161-0.884-0.362C81.825,119.02,83.271,116.327,84.718,113.675z"/>
	<path style="fill:#1D1D1B;" d="M79.896,116.97c0.482-0.322,1.005,0.442,0.603,0.804c-1.527,1.567-2.813,3.215-3.496,5.304
		c-0.201,0.522-0.924,0.322-0.804-0.201C76.802,120.507,77.927,118.457,79.896,116.97z"/>
	<path style="fill:#1D1D1B;" d="M75.958,164.028c0.924-0.241,1.246,1.045,0.402,1.366c-1.447,0.522-2.692,1.206-3.818,2.21
		c-0.563,0.522-1.326-0.241-0.844-0.844C72.863,165.394,74.23,164.47,75.958,164.028z"/>
	<path style="fill:#33B2E9;" d="M73.587,106.723c-5.425,8.961-10.448,18.285-13.261,28.009c-0.08,0.281,0.201,0.563,0.442,0.563
		l-0.08,0.321c-19.972-4.099-39.583-9.966-57.948-18.445c4.019-0.683,14.427-0.442,16.677-0.763
		c5.586-0.844,11.131-1.768,16.717-2.692C48.631,111.545,61.129,109.214,73.587,106.723z"/>
	<path style="fill:#66C5EE;" d="M2.98,119.582c28.25,16.677,64.136,23.227,97.732,26.523c-23.107,7.274-46.053,15.672-68.597,24.553
		C15.639,160.009,10.776,138.952,2.98,119.582z M33.522,140.318c0.884,0.442,1.648-0.844,0.804-1.326
		c-2.813-1.648-5.626-3.175-8.479-4.661c-0.804-0.402-1.527,0.763-0.723,1.246C27.896,137.224,30.668,138.791,33.522,140.318z
		 M30.226,135.375c1.246,0.201,1.527-1.567,0.241-1.728c-2.893-0.362-5.385-1.487-7.876-2.933c-0.563-0.322-1.165,0.442-0.683,0.884
		C24.239,133.647,27.172,134.853,30.226,135.375z"/>
	<path style="fill:#1D1D1B;" d="M34.325,138.992c0.844,0.482,0.08,1.768-0.804,1.326c-2.853-1.527-5.626-3.094-8.399-4.742
		c-0.804-0.482-0.08-1.648,0.723-1.246C28.699,135.817,31.512,137.344,34.325,138.992z"/>
	<path style="fill:#1D1D1B;" d="M30.467,133.647c1.286,0.161,1.005,1.929-0.241,1.728c-3.054-0.522-5.988-1.728-8.318-3.778
		c-0.482-0.442,0.121-1.205,0.683-0.884C25.083,132.16,27.574,133.286,30.467,133.647z"/>
</g>
<g>
</g>
<g>
</g>
<g>
</g>
<g>
</g>
<g>
</g>
<g>
</g>
<g>
</g>
<g>
</g>
<g>
</g>
<g>
</g>
<g>
</g>
<g>
</g>
<g>
</g>
<g>
</g>
<g>
</g>
</svg>
